<svg width="72" height="20" viewBox="0 0 72 20" fill="none" xmlns="http://www.w3.org/2000/svg">
<g id="Layer_1-2">
<path id="Vector" d="M4.37951 11.7861L2.01018 13.0846L1.60193 19.2083L10.5267 13.2353L4.37951 11.7861Z" fill="black"/>
<path id="Vector_2" d="M9.59562 5.84736L9.59455 5.84949L10.566 5.34292L10.7883 0.465332L1.2693 5.71911L0.807617 10.43L9.59562 5.84736Z" fill="black"/>
<path id="Vector_3" d="M6.21929 8.03906L1.29895 10.604L10.7966 12.8344L15.3493 9.92854L6.21929 8.03906Z" fill="black"/>
<path id="Vector_4" d="M69.739 15.9709L63.5886 10.1208L57.4595 15.9709H55.9088L62.8127 9.38767L55.8661 2.75098H57.3719L63.5661 8.67163L69.7604 2.75098H71.3335L64.342 9.40477L71.2459 15.9709H69.739Z" fill="black"/>
<path id="Vector_5" d="M52.7274 2.76201C52.4057 2.65514 52.0744 2.66262 51.7698 2.78446C51.4481 2.9127 51.1777 3.12217 50.9854 3.39148L44.898 10.5241L38.8074 3.38614C38.6172 3.12003 38.3479 2.91163 38.0251 2.78339C37.7216 2.66155 37.3732 2.65407 37.0676 2.76094C36.7833 2.84965 36.5386 3.02598 36.3954 3.24721C36.2179 3.4866 36.1282 3.78797 36.1282 4.14386V16.0343H37.1873V4.14599C37.1873 4.00172 37.2225 3.8179 37.3957 3.76446C37.5239 3.72172 37.774 3.7666 37.929 3.99958L44.8959 12.4103L51.8639 3.99744C52.0145 3.77088 52.2486 3.71744 52.4014 3.76553C52.5692 3.81683 52.6045 4.00065 52.6045 4.14492V16.0354H53.6636V4.14599C53.6636 3.78691 53.5717 3.48339 53.3932 3.24507C53.2233 3.01209 52.9903 2.84537 52.7242 2.76308" fill="black"/>
<path id="Vector_6" d="M29.8739 9.12624H23.8837C22.5521 9.12624 21.4695 8.04257 21.4695 6.71202V6.19049C21.4695 4.85888 22.5532 3.77521 23.8837 3.77521H32.8994V2.73535H23.8837C21.9793 2.73535 20.4286 4.28498 20.4286 6.19049V6.71202C20.4286 8.61753 21.9782 10.1672 23.8837 10.1672H29.8739C31.2055 10.1672 32.2881 11.2508 32.2881 12.5814C32.2881 13.9119 31.2044 14.9967 29.8739 14.9967H20.3987V16.0365H29.8739C31.7794 16.0365 33.329 14.4869 33.329 12.5814C33.329 10.6759 31.7794 9.12624 29.8739 9.12624Z" fill="black"/>
</g>
</svg>
